# xmcd
# Track frame offsets:
# 150
# 19870
# 39341
# 60169
# 76246
# 94236
# 111174
# 127426
# 145446
# 160531
# 177688
# 197053
#
# Disc length: 2827 seconds
# Revision: 0
# Processed by: cddbd v1.5.2PL0 Copyright (c) Steve Scherf et al.
# Submitted via: VisiTrax 2.10.3.257 - For more info visit www.synapsa.com
#
DISCID=a30b090c
DTITLE=Steele, Merilyn - This Passion
DYEAR=2004
DGENRE=
TTITLE0=Charades
TTITLE1=You Don't wanna Know
TTITLE2=When it Rains
TTITLE3=Forever
TTITLE4=This Passion
TTITLE5=No Moss
TTITLE6=T.L.C (Ten Less Candles
TTITLE7=Missing You
TTITLE8=By Your side
TTITLE9=The Hardest Part
TTITLE10=You Don't Wanna Know (Accoustic)
TTITLE11=Finger Lickin'
EXTD=
EXTT0=
EXTT1=
EXTT2=
EXTT3=
EXTT4=
EXTT5=
EXTT6=
EXTT7=
EXTT8=
EXTT9=
EXTT10=
EXTT11=
PLAYORDER=
